<?xml version="1.0" encoding="UTF-8"?>
<svg xmlns="http://www.w3.org/2000/svg" id="logo" width="146.2" height="100.533" viewBox="0 0 146.2 100.533">
  <g id="Group_6" data-name="Group 6">
    <path id="Path_121" data-name="Path 121" d="M58.3,11.9a3.936,3.936,0,1,1-4.1,3.933A4.036,4.036,0,0,1,58.3,11.9Z" transform="translate(0 -0.484)" fill="#4bac4b" fill-rule="evenodd"></path>
    <path id="Path_122" data-name="Path 122" d="M17.9,22.7a4.321,4.321,0,1,1,0,8.634,4.393,4.393,0,0,1-4.5-4.317A4.332,4.332,0,0,1,17.9,22.7Z" transform="translate(0 -0.924)" fill="#4bac4b" fill-rule="evenodd"></path>
    <path id="Path_123" data-name="Path 123" d="M9.1,40.8a4.7,4.7,0,1,1,0,9.4,4.7,4.7,0,1,1,0-9.4Z" transform="translate(0 -1.661)" fill="#4bac4b" fill-rule="evenodd"></path>
    <path id="Path_124" data-name="Path 124" d="M16.6,50.8a5.185,5.185,0,1,1,0,10.36,5.271,5.271,0,0,1-5.4-5.18,5.335,5.335,0,0,1,5.4-5.18Z" transform="translate(0 -2.068)" fill="#4bac4b" fill-rule="evenodd"></path>
    <path id="Path_125" data-name="Path 125" d="M58.7,92.4a3.936,3.936,0,1,1-4.1,3.933A4.1,4.1,0,0,1,58.7,92.4Z" transform="translate(0 -3.762)" fill="#4bac4b" fill-rule="evenodd"></path>
    <path id="Path_126" data-name="Path 126" d="M75.2,79.4a4.9,4.9,0,1,1-5.1,4.892A5.02,5.02,0,0,1,75.2,79.4Z" transform="translate(0 -3.233)" fill="#4bac4b" fill-rule="evenodd"></path>
    <path id="Path_127" data-name="Path 127" d="M83.1,79.8a4.225,4.225,0,1,1-4.4,4.221A4.352,4.352,0,0,1,83.1,79.8Z" transform="translate(0 -3.249)" fill="#aad5d1" fill-rule="evenodd"></path>
    <path id="Path_128" data-name="Path 128" d="M75.3,93.3a2.592,2.592,0,1,1-2.7,2.59,2.636,2.636,0,0,1,2.7-2.59Z" transform="translate(0 -3.798)" fill="#aad5d1" fill-rule="evenodd"></path>
    <path id="Path_129" data-name="Path 129" d="M45.8,70.9A7.489,7.489,0,1,1,38,78.382,7.656,7.656,0,0,1,45.8,70.9Z" transform="translate(0 -2.886)" fill="#aad5d1" fill-rule="evenodd"></path>
    <path id="Path_130" data-name="Path 130" d="M46.6,81.1a4.7,4.7,0,1,1-4.9,4.7,4.811,4.811,0,0,1,4.9-4.7Z" transform="translate(0 -3.302)" fill="#4bac4b" fill-rule="evenodd"></path>
    <path id="Path_131" data-name="Path 131" d="M47.2,89.3a3.456,3.456,0,1,1-3.6,3.453A3.514,3.514,0,0,1,47.2,89.3Z" transform="translate(0 -3.636)" fill="#d8d536" fill-rule="evenodd"></path>
    <path id="Path_132" data-name="Path 132" d="M17.8,80a4.7,4.7,0,1,1,0,9.4,4.7,4.7,0,1,1,0-9.4Z" transform="translate(0 -3.257)" fill="#4bac4b" fill-rule="evenodd"></path>
    <path id="Path_133" data-name="Path 133" d="M31.5,63.5a7.009,7.009,0,1,1,0,14.006,7.009,7.009,0,1,1,0-14.006Z" transform="translate(0 -2.585)" fill="#4bac4b" fill-rule="evenodd"></path>
    <path id="Path_134" data-name="Path 134" d="M29.2,45.5a7.3,7.3,0,1,1,0,14.581,7.3,7.3,0,1,1,0-14.581Z" transform="translate(0 -1.852)" fill="#aad5d1" fill-rule="evenodd"></path>
    <path id="Path_135" data-name="Path 135" d="M36.3,45.7a3.36,3.36,0,1,1-3.5,3.358A3.41,3.41,0,0,1,36.3,45.7Z" transform="translate(0 -1.861)" fill="#d8d536" fill-rule="evenodd"></path>
    <path id="Path_136" data-name="Path 136" d="M31.1,32.6a7.3,7.3,0,1,1-7.6,7.291A7.447,7.447,0,0,1,31.1,32.6Z" transform="translate(0 -1.327)" fill="#4bac4b" fill-rule="evenodd"></path>
    <path id="Path_137" data-name="Path 137" d="M75.5,22.5a4.561,4.561,0,0,1,4.6,4.413,4.6,4.6,0,0,1-9.2,0A4.5,4.5,0,0,1,75.5,22.5Z" transform="translate(0 -0.916)" fill="#4bac4b" fill-rule="evenodd"></path>
    <path id="Path_138" data-name="Path 138" d="M2.4,55.4a2.3,2.3,0,1,1,0,4.6A2.321,2.321,0,0,1,0,57.7a2.385,2.385,0,0,1,2.4-2.3Z" transform="translate(0 -2.255)" fill="#4bac4b" fill-rule="evenodd"></path>
    <path id="Path_139" data-name="Path 139" d="M6.5,64.3a3.744,3.744,0,1,1,0,7.482,3.893,3.893,0,0,1-3.9-3.741A3.764,3.764,0,0,1,6.5,64.3Z" transform="translate(0 -2.618)" fill="#4bac4b" fill-rule="evenodd"></path>
    <path id="Path_140" data-name="Path 140" d="M13.1,64.8a3.744,3.744,0,1,1,0,7.482,3.827,3.827,0,0,1-3.9-3.741A3.767,3.767,0,0,1,13.1,64.8Z" transform="translate(0 -2.638)" fill="#aad5d1" fill-rule="evenodd"></path>
    <path id="Path_141" data-name="Path 141" d="M15.8,57.6a3.744,3.744,0,1,1-3.9,3.741A3.764,3.764,0,0,1,15.8,57.6Z" transform="translate(0 -2.345)" fill="#13b6e0" fill-rule="evenodd"></path>
    <path id="Path_142" data-name="Path 142" d="M10.9,43.2a4.7,4.7,0,1,1,0,9.4,4.7,4.7,0,1,1,0-9.4Z" transform="translate(0 -1.759)" fill="#aad5d1" fill-rule="evenodd"></path>
    <path id="Path_143" data-name="Path 143" d="M12.3,37.3a4.7,4.7,0,1,1,0,9.4,4.7,4.7,0,1,1,0-9.4Z" transform="translate(0 -1.519)" fill="#13b6e0" fill-rule="evenodd"></path>
    <path id="Path_144" data-name="Path 144" d="M15.7,20.3a3.84,3.84,0,1,1-4,3.837,3.933,3.933,0,0,1,4-3.837Z" transform="translate(0 -0.826)" fill="#13b6e0" fill-rule="evenodd"></path>
    <path id="Path_145" data-name="Path 145" d="M21.7,26.6a3.84,3.84,0,1,1-4,3.837,3.81,3.81,0,0,1,4-3.837Z" transform="translate(0 -1.083)" fill="#aad5d1" fill-rule="evenodd"></path>
    <path id="Path_146" data-name="Path 146" d="M19.9,12a2.3,2.3,0,1,1,0,4.6,2.385,2.385,0,0,1-2.4-2.3A2.262,2.262,0,0,1,19.9,12Z" transform="translate(0 -0.489)" fill="#13b6e0" fill-rule="evenodd"></path>
    <path id="Path_147" data-name="Path 147" d="M32.2,6.9a3.933,3.933,0,0,1,4,3.837,4,4,0,0,1-8,0,3.933,3.933,0,0,1,4-3.837Z" transform="translate(0 -0.281)" fill="#13b6e0" fill-rule="evenodd"></path>
    <path id="Path_148" data-name="Path 148" d="M36.4,14.1a3.933,3.933,0,0,1,4,3.837,4,4,0,0,1-8,0,3.933,3.933,0,0,1,4-3.837Z" transform="translate(0 -0.574)" fill="#4bac4b" fill-rule="evenodd"></path>
    <path id="Path_149" data-name="Path 149" d="M39.5,13.2a3.933,3.933,0,0,1,4,3.837,4,4,0,0,1-8,0,3.933,3.933,0,0,1,4-3.837Z" transform="translate(0 -0.537)" fill="#aad5d1" fill-rule="evenodd"></path>
    <path id="Path_150" data-name="Path 150" d="M46,21.3a4.8,4.8,0,1,1-5,4.8,4.915,4.915,0,0,1,5-4.8Z" transform="translate(0 -0.867)" fill="#4bac4b" fill-rule="evenodd"></path>
    <path id="Path_151" data-name="Path 151" d="M47.6,10a2.3,2.3,0,1,1-2.4,2.3A2.385,2.385,0,0,1,47.6,10Z" transform="translate(0 -0.407)" fill="#4bac4b" fill-rule="evenodd"></path>
    <path id="Path_152" data-name="Path 152" d="M50.6,0A4.369,4.369,0,0,1,55,4.317a4.5,4.5,0,0,1-9,0A4.547,4.547,0,0,1,50.6,0Z" fill="#13b6e0" fill-rule="evenodd"></path>
    <path id="Path_153" data-name="Path 153" d="M59.9,12.7a4.706,4.706,0,0,1,4.8,4.6,4.8,4.8,0,0,1-9.6,0,4.707,4.707,0,0,1,4.8-4.6Z" transform="translate(0 -0.517)" fill="#aad5d1" fill-rule="evenodd"></path>
    <path id="Path_154" data-name="Path 154" d="M69,7a3.933,3.933,0,0,1,4,3.837,4,4,0,0,1-8,0A3.933,3.933,0,0,1,69,7Z" transform="translate(0 -0.285)" fill="#13b6e0" fill-rule="evenodd"></path>
    <path id="Path_155" data-name="Path 155" d="M80.5,12.2a2.6,2.6,0,0,1,2.6,2.494,2.6,2.6,0,0,1-5.2,0A2.532,2.532,0,0,1,80.5,12.2Z" transform="translate(0 -0.497)" fill="#13b6e0" fill-rule="evenodd"></path>
    <path id="Path_156" data-name="Path 156" d="M87,23.9a2.4,2.4,0,1,1-2.5,2.4A2.427,2.427,0,0,1,87,23.9Z" transform="translate(0 -0.973)" fill="#13b6e0" fill-rule="evenodd"></path>
    <path id="Path_157" data-name="Path 157" d="M70.4,18.1a5.02,5.02,0,0,1,5.1,4.892,5.1,5.1,0,0,1-10.2,0A5.02,5.02,0,0,1,70.4,18.1Z" transform="translate(0 -0.737)" fill="#13b6e0" fill-rule="evenodd"></path>
    <path id="Path_158" data-name="Path 158" d="M47.7,32.5a3.36,3.36,0,1,1-3.5,3.358A3.474,3.474,0,0,1,47.7,32.5Z" transform="translate(0 -1.323)" fill="#d8d536" fill-rule="evenodd"></path>
    <path id="Path_159" data-name="Path 159" d="M39.8,37.8a2.016,2.016,0,1,1-2.1,2.015A2.071,2.071,0,0,1,39.8,37.8Z" transform="translate(0 -1.539)" fill="#d8d536" fill-rule="evenodd"></path>
    <path id="Path_160" data-name="Path 160" d="M34.5,26.4a5.569,5.569,0,1,1-5.8,5.564A5.69,5.69,0,0,1,34.5,26.4Z" transform="translate(0 -1.075)" fill="#aad5d1" fill-rule="evenodd"></path>
    <path id="Path_161" data-name="Path 161" d="M30,35.7a6.721,6.721,0,1,1,0,13.43A6.721,6.721,0,1,1,30,35.7Z" transform="translate(0 -1.453)" fill="#13b6e0" fill-rule="evenodd"></path>
    <path id="Path_162" data-name="Path 162" d="M46.4,43.8A4.225,4.225,0,1,1,42,48.021,4.352,4.352,0,0,1,46.4,43.8Z" transform="translate(0 -1.783)" fill="#d8d536" fill-rule="evenodd"></path>
    <path id="Path_163" data-name="Path 163" d="M30.3,57.5A5.089,5.089,0,1,1,25,62.584,5.3,5.3,0,0,1,30.3,57.5Z" transform="translate(0 -2.341)" fill="#13b6e0" fill-rule="evenodd"></path>
    <path id="Path_164" data-name="Path 164" d="M25.5,67.5a5.377,5.377,0,1,1-5.6,5.372A5.481,5.481,0,0,1,25.5,67.5Z" transform="translate(0 -2.748)" fill="#aad5d1" fill-rule="evenodd"></path>
    <path id="Path_165" data-name="Path 165" d="M19.7,70.8a2.688,2.688,0,1,1-2.8,2.686A2.739,2.739,0,0,1,19.7,70.8Z" transform="translate(0 -2.882)" fill="#13b6e0" fill-rule="evenodd"></path>
    <path id="Path_166" data-name="Path 166" d="M14.2,79.8a2.208,2.208,0,1,1,0,4.413,2.208,2.208,0,1,1,0-4.413Z" transform="translate(0 -3.249)" fill="#aad5d1" fill-rule="evenodd"></path>
    <path id="Path_167" data-name="Path 167" d="M23.8,84.6a4.032,4.032,0,1,1-4.2,4.029A4.142,4.142,0,0,1,23.8,84.6Z" transform="translate(0 -3.444)" fill="#aad5d1" fill-rule="evenodd"></path>
    <path id="Path_168" data-name="Path 168" d="M36.1,76.6a3.072,3.072,0,1,1-3.2,3.07,3.038,3.038,0,0,1,3.2-3.07Z" transform="translate(0 -3.119)" fill="#d8d536" fill-rule="evenodd"></path>
    <path id="Path_169" data-name="Path 169" d="M45.6,76.8a3.936,3.936,0,1,1-4.1,3.933A4.036,4.036,0,0,1,45.6,76.8Z" transform="translate(0 -3.127)" fill="#d8d536" fill-rule="evenodd"></path>
    <path id="Path_170" data-name="Path 170" d="M50.2,76.6a4.7,4.7,0,1,1-4.9,4.7,4.688,4.688,0,0,1,4.9-4.7Z" transform="translate(0 -3.119)" fill="#13b6e0" fill-rule="evenodd"></path>
    <path id="Path_171" data-name="Path 171" d="M39.2,87.4A2.112,2.112,0,1,1,37,89.51a2.176,2.176,0,0,1,2.2-2.11Z" transform="translate(0 -3.558)" fill="#d8d536" fill-rule="evenodd"></path>
    <path id="Path_172" data-name="Path 172" d="M34.5,91.7a3.936,3.936,0,1,1-4.1,3.933A3.915,3.915,0,0,1,34.5,91.7Z" transform="translate(0 -3.733)" fill="#4bac4b" fill-rule="evenodd"></path>
    <path id="Path_173" data-name="Path 173" d="M41.8,92a4.7,4.7,0,1,1-4.9,4.7A4.811,4.811,0,0,1,41.8,92Z" transform="translate(0 -3.745)" fill="#aad5d1" fill-rule="evenodd"></path>
    <path id="Path_174" data-name="Path 174" d="M46.3,99.2a2.688,2.688,0,1,1-2.8,2.686A2.739,2.739,0,0,1,46.3,99.2Z" transform="translate(0 -4.039)" fill="#4bac4b" fill-rule="evenodd"></path>
    <path id="Path_175" data-name="Path 175" d="M61.8,93.2a3.936,3.936,0,1,1-4.1,3.933A4.173,4.173,0,0,1,61.8,93.2Z" transform="translate(0 -3.794)" fill="#aad5d1" fill-rule="evenodd"></path>
    <path id="Path_176" data-name="Path 176" d="M66.1,76.2a5.665,5.665,0,1,1-5.9,5.66,5.793,5.793,0,0,1,5.9-5.66Z" transform="translate(0 -3.102)" fill="#aad5d1" fill-rule="evenodd"></path>
    <path id="Path_177" data-name="Path 177" d="M78.6,76.6a4.225,4.225,0,1,1-4.4,4.221A4.289,4.289,0,0,1,78.6,76.6Z" transform="translate(0 -3.119)" fill="#d8d536" fill-rule="evenodd"></path>
    <path id="Path_178" data-name="Path 178" d="M91.5,76.5a3.456,3.456,0,1,1-3.6,3.453A3.514,3.514,0,0,1,91.5,76.5Z" transform="translate(0 -3.114)" fill="#d8d536" fill-rule="evenodd"></path>
    <path id="Path_179" data-name="Path 179" d="M87.7,87.8a2.112,2.112,0,1,1-2.2,2.11,2.176,2.176,0,0,1,2.2-2.11Z" transform="translate(0 -3.575)" fill="#d8d536" fill-rule="evenodd"></path>
    <path id="Path_180" data-name="Path 180" d="M77.6,90a3.168,3.168,0,1,1-3.3,3.166A3.2,3.2,0,0,1,77.6,90Z" transform="translate(0 -3.664)" fill="#d8d536" fill-rule="evenodd"></path>
    <path id="Path_181" data-name="Path 181" d="M45.7,58.8A5.473,5.473,0,1,1,40,64.268,5.584,5.584,0,0,1,45.7,58.8Z" transform="translate(0 -2.394)" fill="#d8d536" fill-rule="evenodd"></path>
    <path id="Path_182" data-name="Path 182" d="M31.7,74a4.032,4.032,0,1,1-4.2,4.029A4.08,4.08,0,0,1,31.7,74Z" transform="translate(0 -3.013)" fill="#13b6e0" fill-rule="evenodd"></path>
    <path id="Path_183" data-name="Path 183" d="M62.7,75.8a5.665,5.665,0,1,1-5.9,5.66,5.73,5.73,0,0,1,5.9-5.66Z" transform="translate(0 -3.086)" fill="#d8d536" fill-rule="evenodd"></path>
    <path id="Path_184" data-name="Path 184" d="M62.5,92.7a3.648,3.648,0,1,1-3.8,3.645A3.723,3.723,0,0,1,62.5,92.7Z" transform="translate(0 -3.774)" fill="#d8d536" fill-rule="evenodd"></path>
    <path id="Path_185" data-name="Path 185" d="M30.4,18.1a4.915,4.915,0,0,1,5,4.8,4.916,4.916,0,0,1-5,4.8,4.981,4.981,0,0,1-5-4.8,4.852,4.852,0,0,1,5-4.8Z" transform="translate(0 -0.737)" fill="#13b6e0" fill-rule="evenodd"></path>
    <path id="Path_186" data-name="Path 186" d="M50.4,15.7a7.029,7.029,0,0,1,7.2,6.907,7.206,7.206,0,0,1-14.4,0A7.029,7.029,0,0,1,50.4,15.7Z" transform="translate(0 -0.639)" fill="#13b6e0" fill-rule="evenodd"></path>
    <path id="Path_187" data-name="Path 187" d="M88.7,35.1a2.88,2.88,0,1,1-3,2.878,2.948,2.948,0,0,1,3-2.878Z" transform="translate(0 -1.429)" fill="#13b6e0" fill-rule="evenodd"></path>
    <path id="Path_188" data-name="Path 188" d="M123.4,69.151h-5.8L122.5,35h6.4L137,58.6h0L140.4,35h5.8l-4.9,34.151h-6L127,44.593h0l-3.6,24.558Zm-69.2,0L59.1,35h6.1L63.4,47.663H74.7L76.6,35h6.2L77.9,69.151H71.7L73.9,53.8H62.5L60.3,69.151H54.2Zm34.4-9.977,1.3-9.017,1.1-7.77a5.754,5.754,0,0,1-2.3.48,4.911,4.911,0,0,1-2.4-.576,6.746,6.746,0,0,1-1.4-.863l-1.3,8.73L80.9,69.151h6.2l1.5-9.977Zm6.2-18.226h13.4a3.669,3.669,0,0,1,3.1,1.151,4.554,4.554,0,0,1,.6,3.453,5.692,5.692,0,0,1-1.6,3.453,5.926,5.926,0,0,1-3.4,1.151H99.6l1.1-7.77H94.6l-1.1,7.77L90.8,69.151h6.1l1.9-13.334h6.8c1.6,0,2.6.384,3.1,1.247.5.767.6,2.206.3,4.029l-.3,1.919a18.266,18.266,0,0,0-.3,3.358,20.111,20.111,0,0,0,.1,2.686h6.7l.1-.863a1.422,1.422,0,0,1-.8-1.151,11.713,11.713,0,0,1,.2-2.974l.6-3.837c.5-3.262-.1-5.564-1.9-6.907a4.234,4.234,0,0,0-.7-.48,12.771,12.771,0,0,0,1.9-1.247,10.73,10.73,0,0,0,3.6-7c.4-3.07-.1-5.468-1.6-7.1s-3.9-2.4-7.2-2.4H92.2a4.6,4.6,0,0,1,.1,5.852h2.5Z" transform="translate(0 -1.425)" fill="#2a324b"></path>
  </g>
</svg>
