<?xml version="1.0" encoding="UTF-8" standalone="no"?>
<!-- Created with Inkscape (http://www.inkscape.org/) -->

<svg
   width="75.564476mm"
   height="17.147646mm"
   viewBox="0 0 75.564476 17.147646"
   version="1.1"
   id="svg1"
   inkscape:version="1.3 (0e150ed, 2023-07-21)"
   sodipodi:docname="PanKbase_logo.svg"
   inkscape:export-filename="PanKbase_logo.black.svg"
   inkscape:export-xdpi="96"
   inkscape:export-ydpi="96"
   xmlns:inkscape="http://www.inkscape.org/namespaces/inkscape"
   xmlns:sodipodi="http://sodipodi.sourceforge.net/DTD/sodipodi-0.dtd"
   xmlns="http://www.w3.org/2000/svg"
   xmlns:svg="http://www.w3.org/2000/svg">
  <sodipodi:namedview
     id="namedview1"
     pagecolor="#ffffff"
     bordercolor="#000000"
     borderopacity="0.25"
     inkscape:showpageshadow="2"
     inkscape:pageopacity="0.0"
     inkscape:pagecheckerboard="0"
     inkscape:deskcolor="#d1d1d1"
     inkscape:document-units="mm"
     inkscape:zoom="0.51084763"
     inkscape:cx="287.75704"
     inkscape:cy="519.72445"
     inkscape:window-width="1432"
     inkscape:window-height="846"
     inkscape:window-x="0"
     inkscape:window-y="38"
     inkscape:window-maximized="0"
     inkscape:current-layer="layer1" />
  <defs
     id="defs1" />
  <g
     inkscape:label="Layer 1"
     inkscape:groupmode="layer"
     id="layer1"
     transform="translate(-64.385278,-38.028823)">
    <g
       id="data_cubes"
       data-name="data cubes"
       transform="matrix(0.26458333,0,0,0.26458333,64.385276,37.811865)">
      <g
         id="g3">
        <polygon
           class="cls-9"
           points="47.84,26.77 36.67,20.32 36.67,7.42 47.84,13.87 "
           id="polygon1"
           style="fill:#536c6c;stroke-width:0px" />
        <polygon
           class="cls-8"
           points="59.01,20.32 47.84,26.77 47.84,13.87 59.01,7.42 "
           id="polygon2"
           style="fill:#86a9a7;stroke-width:0px" />
        <polygon
           class="cls-11"
           points="47.84,13.87 36.67,7.42 47.84,0.97 59.01,7.42 "
           id="polygon3"
           style="fill:#aad4d1;stroke-width:0px" />
      </g>
      <g
         id="g6">
        <polygon
           class="cls-5"
           points="63.82,61.83 52.65,55.38 52.65,42.48 63.82,48.93 "
           id="polygon4"
           style="fill:#94ca5e;stroke-width:0px" />
        <polygon
           class="cls-14"
           points="74.99,55.38 63.82,61.83 63.82,48.93 74.99,42.48 "
           id="polygon5"
           style="fill:#aeae29;stroke-width:0px" />
        <polygon
           class="cls-10"
           points="63.82,48.93 52.65,42.48 63.82,36.03 74.99,42.48 "
           id="polygon6"
           style="fill:#d9d633;stroke-width:0px" />
      </g>
      <g
         id="g9"
         transform="translate(0,-0.3812417)">
        <polygon
           class="cls-9"
           points="47.84,52.61 47.84,65.51 36.67,59.06 36.67,46.16 "
           id="polygon7"
           style="fill:#536c6c;stroke-width:0px" />
        <polygon
           class="cls-8"
           points="59.01,46.16 59.01,59.06 47.84,65.51 47.84,52.61 "
           id="polygon8"
           style="fill:#86a9a7;stroke-width:0px" />
        <polygon
           class="cls-11"
           points="59.01,46.16 47.84,52.61 36.67,46.16 47.84,39.71 "
           id="polygon9"
           style="fill:#aad4d1;stroke-width:0px" />
      </g>
      <g
         id="g12">
        <polygon
           class="cls-7"
           points="59.01,46.16 47.84,39.71 47.84,26.81 59.01,33.26 "
           id="polygon10"
           style="fill:#005476;stroke-width:0px" />
        <polygon
           class="cls-6"
           points="70.18,39.71 59.01,46.16 59.01,33.26 70.18,26.81 "
           id="polygon11"
           style="fill:#0081b2;stroke-width:0px" />
        <polygon
           class="cls-12"
           points="59.01,33.26 47.84,26.81 59.01,20.36 70.18,26.81 "
           id="polygon12"
           style="fill:#0bb5df;stroke-width:0px" />
      </g>
      <g
         id="g15">
        <polygon
           class="cls-13"
           points="36.67,33.26 47.84,39.71 47.84,52.61 36.67,46.16 "
           id="polygon13"
           style="fill:#11541c;stroke-width:0px" />
        <polygon
           class="cls-4"
           points="47.84,39.71 59.01,33.26 59.01,46.16 47.84,52.61 "
           id="polygon14"
           style="fill:#3d8f3c;fill-opacity:1;stroke-width:0px" />
        <polygon
           class="cls-3"
           points="47.84,26.81 59.01,33.26 47.84,39.71 36.67,33.26 "
           id="polygon15"
           style="fill:#4dac4a;fill-opacity:1;stroke-width:0px" />
      </g>
      <g
         id="g18"
         inkscape:transform-center-x="11.149784"
         inkscape:transform-center-y="-6.0884"
         transform="rotate(-0.5178056,70.460688,26.675202)">
        <polygon
           class="cls-13"
           points="63.82,30.47 52.65,24.02 52.65,11.13 63.82,17.58 "
           id="polygon16"
           style="fill:#11541c;stroke-width:0px" />
        <polygon
           class="cls-4"
           points="74.99,24.02 63.82,30.47 63.82,17.58 74.99,11.13 "
           id="polygon17"
           style="fill:#3d8f3c;stroke-width:0px" />
        <polygon
           class="cls-3"
           points="63.82,17.58 52.65,11.13 63.82,4.68 74.99,11.13 "
           id="polygon18"
           style="fill:#68b955;fill-opacity:1;stroke-width:0px" />
      </g>
      <g
         id="g21">
        <polygon
           class="cls-5"
           points="47.84,39.71 36.67,33.26 36.67,20.36 47.84,26.81 "
           id="polygon19"
           style="fill:#94ca5e;stroke-width:0px" />
        <polygon
           class="cls-14"
           points="59.01,33.26 47.84,39.71 47.84,26.81 59.01,20.36 "
           id="polygon20"
           style="fill:#aeae29;stroke-width:0px" />
        <polygon
           class="cls-10"
           points="47.84,26.81 36.67,20.36 47.84,13.91 59.01,20.36 "
           id="polygon21"
           style="fill:#eaef5e;fill-opacity:1;stroke-width:0px" />
      </g>
      <g
         id="g24">
        <polygon
           class="cls-13"
           points="78.04,63.86 71.82,60.28 71.82,53.1 78.04,56.69 "
           id="polygon22"
           style="fill:#11541c;stroke-width:0px" />
        <polygon
           class="cls-4"
           points="84.25,60.28 78.04,63.86 78.04,56.69 84.25,53.1 "
           id="polygon23"
           style="fill:#007f83;stroke-width:0px" />
        <polygon
           class="cls-3"
           points="78.04,56.69 71.82,53.1 78.04,49.52 84.25,53.1 "
           id="polygon24"
           style="fill:#4dac4a;stroke-width:0px" />
      </g>
    </g>
    <g
       id="beta_cell"
       data-name="beta cell"
       transform="matrix(0.26458333,0,0,0.26458333,64.385276,37.811865)">
      <circle
         class="cls-12"
         cx="7.8099999"
         cy="15.45"
         r="3.3"
         id="circle24"
         style="fill:#0bb5df;stroke-width:0px" />
      <circle
         class="cls-12"
         cx="7.8099999"
         cy="52.290001"
         r="3.3"
         id="circle25"
         style="fill:#0bb5df;stroke-width:0px" />
      <circle
         class="cls-12"
         cx="2.03"
         cy="33.240002"
         r="2.03"
         id="circle26"
         style="fill:#0bb5df;stroke-width:0px" />
      <circle
         class="cls-12"
         cx="21.23"
         cy="3.8900001"
         r="2.03"
         id="circle27"
         style="fill:#0bb5df;stroke-width:0px" />
      <circle
         class="cls-12"
         cx="22.23"
         cy="59.889999"
         r="2.03"
         id="circle28"
         style="fill:#0bb5df;stroke-width:0px" />
      <path
         class="cls-12"
         d="m 31.96,3.01 c -2.03,0.79 -1.44,1.03 -4.57,3.23 -0.62,0.44 -1.14,0.74 -1.58,0.97 0,0.06 0.02,0.12 0.02,0.18 0,1.56 -1.26,2.82 -2.82,2.82 -0.6,0 -1.15,-0.19 -1.61,-0.51 -1.41,1.59 -1.6,3.22 -3.54,6.06 -2.17,3.17 -3.9,3.72 -4.98,6.77 -1.2,3.36 -0.73,4.38 -0.73,6.27 0,1.89 -1.09,6.05 -1.03,6.85 0.19,2.49 1.43,3.55 2.49,6.12 1.07,2.57 0.22,4.64 1.09,6.31 0.94,1.78 2.32,2.2 4.2,4.12 0.83,0.84 1.29,1.75 1.7,2.62 0.6,-0.26 1.26,-0.41 1.97,-0.41 2.67,0 4.84,2.07 4.84,4.63 0,0.23 -0.04,0.46 -0.07,0.69 0.38,0.14 0.75,0.29 1.08,0.48 2.18,1.26 3.47,3.32 5.93,4.05 2.97,0.89 6.12,1.37 9.36,1.37 V 0.82 c -4.13,0 -8.09,0.78 -11.74,2.19 z m -8.95,38.96 c -2.7,0 -4.88,-2.19 -4.88,-4.88 0,-2.69 2.19,-4.88 4.88,-4.88 2.69,0 4.88,2.19 4.88,4.88 0,2.69 -2.19,4.88 -4.88,4.88 z M 27.32,14.3 c 0,-1.82 1.48,-3.3 3.3,-3.3 1.82,0 3.3,1.48 3.3,3.3 0,1.82 -1.48,3.3 -3.3,3.3 -1.82,0 -3.3,-1.48 -3.3,-3.3 z m 5.66,39.38 c -1.82,0 -3.3,-1.48 -3.3,-3.3 0,-1.82 1.48,-3.3 3.3,-3.3 1.82,0 3.3,1.48 3.3,3.3 0,1.82 -1.48,3.3 -3.3,3.3 z"
         id="path28"
         style="fill:#0bb5df;stroke-width:0px" />
    </g>
    <g
       id="text30"
       class="cls-17"
       style="font-weight:700;font-size:43.14px;font-family:Quicksand-Bold, Quicksand;font-variation-settings:'wght' 700;display:inline;fill:#414042"
       transform="matrix(0.24594507,0,0,0.24594507,87.914405,49.809315)"
       aria-label="PanKbase"
       inkscape:label="PanKbase">
      <path
         style="letter-spacing:0.02em"
         d="m 201.32331,0.43139999 q -3.6669,0 -6.38472,-1.50989999 -2.67468,-1.55304 -4.14144,-4.1845799 -1.42362,-2.63154 -1.42362,-5.9533201 0,-3.8826 1.55304,-6.60042 1.59618,-2.76096 4.14144,-4.22772 2.54526,-1.46676 5.3925,-1.46676 2.20014,0 4.14144,0.90594 1.98444,0.90594 3.49434,2.50212 1.5099,1.55304 2.3727,3.62376 0.90594,2.07072 0.90594,4.40028 -0.0431,1.03536 -0.81966,1.68246 -0.77652,0.6471001 -1.81188,0.6471001 h -16.47948 l -1.2942,-4.3140001 h 15.83238 l -0.94908,0.8628 v -1.16478 q -0.0863,-1.25106 -0.90594,-2.24328 -0.77652,-0.99222 -1.98444,-1.55304 -1.16478,-0.60396 -2.50212,-0.60396 -1.2942,0 -2.41584,0.34512 -1.12164,0.34512 -1.9413,1.16478 -0.81966,0.81966 -1.2942,2.20014 -0.47454,1.38048 -0.47454,3.49434 0,2.3295601 0.94908,3.9688801 0.99222,1.59618 2.50212,2.45898 1.55304,0.81966 3.27864,0.81966 1.59618,0 2.54526,-0.25884 0.94908,-0.25884 1.5099,-0.60396 0.60396,-0.38826 1.0785,-0.6471 0.77652,-0.38826 1.46676,-0.38826 0.94908,0 1.55304,0.6471 0.6471,0.6471 0.6471,1.5099 0,1.1647799 -1.20792,2.1138599 -1.12164,0.94908001 -3.14922,1.68246 -2.02758,0.69023999 -4.18458,0.69023999 z"
         id="path49"
         inkscape:label="e" />
      <path
         style="letter-spacing:0.02em"
         d="m 167.45848,-3.5806199 q -0.4314,-0.60396 -0.38826,-1.55304 0.0431,-0.94908 1.12164,-1.63932 0.69024,-0.4314 1.46676,-0.34512 0.77652,0.04314 1.5099,0.77652 1.25106,1.25106 2.63154,1.9413 1.38048,0.69024 3.4512,0.69024 0.6471,-0.04314 1.42362,-0.17256 0.77652,-0.17256 1.33734,-0.69024 0.60396,-0.56082 0.60396,-1.68246 0,-0.94908 -0.6471,-1.5099 -0.6471,-0.56082 -1.7256,-0.94908 -1.03536,-0.38826 -2.32956,-0.73338 -1.33734,-0.38826 -2.76096,-0.8628001 -1.38048,-0.47454 -2.54526,-1.20792 -1.16478,-0.77652 -1.89816,-2.02758 -0.73338,-1.25106 -0.73338,-3.14922 0,-2.157 1.20792,-3.6669 1.20792,-1.5099 3.10608,-2.32956 1.9413,-0.81966 4.05516,-0.81966 1.33734,0 2.8041,0.34512 1.46676,0.30198 2.8041,1.03536 1.33734,0.69024 2.24328,1.85502 0.47454,0.6471 0.56082,1.55304 0.0863,0.90594 -0.81966,1.63932 -0.6471,0.51768 -1.5099,0.47454 -0.8628,-0.08628 -1.42362,-0.60396 -0.73338,-0.94908 -1.98444,-1.5099 -1.20792,-0.56082 -2.8041,-0.56082 -0.6471,0 -1.42362,0.17256 -0.73338,0.12942 -1.2942,0.6471 -0.56082,0.47454 -0.56082,1.55304 0,0.99222 0.6471,1.59618 0.6471,0.56082 1.7256,0.94908 1.12164,0.34512 2.3727,0.69024 1.2942,0.34512 2.63154,0.81966 1.33734,0.47454 2.45898,1.25106 1.12164,0.77652 1.81188,2.0275801 0.69024,1.20792 0.69024,3.10608 0,2.20014 -1.2942,3.7531799 -1.2942,1.55304 -3.2355,2.3727 -1.9413,0.77651999 -3.96888,0.77651999 -2.54526,0 -5.09052,-0.86279998 -2.54526,-0.90594001 -4.22772,-3.14921991 z"
         id="path48"
         inkscape:label="s" />
      <path
         style="letter-spacing:0.02em"
         d="m 159.73649,-23.5113 q 1.12164,0 1.85502,0.73338 0.73338,0.73338 0.73338,1.89816 v 18.24822 q 0,1.12164 -0.73338,1.89816001 Q 160.85813,0 159.73649,0 158.61485,0 157.88147,-0.73337999 157.14809,-1.5099 157.14809,-2.63154 v -2.1138599 l 0.94908,0.38826 q 0,0.56082 -0.60396,1.3804799 -0.60396,0.77652 -1.63932,1.55304 -1.03536,0.77652001 -2.45898,1.33734 -1.38048,0.51767999 -3.0198,0.51767999 -2.97666,0 -5.3925,-1.50989999 -2.41584,-1.55304 -3.83946,-4.2277199 -1.38048,-2.71782 -1.38048,-6.2121601 0,-3.53748 1.38048,-6.21216 1.42362,-2.71782 3.79632,-4.22772 2.3727,-1.55304 5.26308,-1.55304 1.85502,0 3.40806,0.56082 1.55304,0.56082 2.67468,1.42362 1.16478,0.8628 1.76874,1.76874 0.6471,0.8628 0.6471,1.46676 l -1.55304,0.56082 v -3.14922 q 0,-1.12164 0.73338,-1.85502 0.73338,-0.77652 1.85502,-0.77652 z m -8.71428,19.1973001 q 1.89816,0 3.32178,-0.94908 1.42362,-0.94908 2.20014,-2.5884 0.81966,-1.63932 0.81966,-3.6669001 0,-2.07072 -0.81966,-3.71004 -0.77652,-1.63932 -2.20014,-2.5884 -1.42362,-0.94908 -3.32178,-0.94908 -1.85502,0 -3.27864,0.94908 -1.42362,0.94908 -2.24328,2.5884 -0.77652,1.63932 -0.77652,3.71004 0,2.0275801 0.77652,3.6669001 0.81966,1.63932 2.24328,2.5884 1.42362,0.94908 3.27864,0.94908 z"
         id="path45"
         inkscape:label="a" />
      <path
         style="font-weight:700;font-size:43.14px;font-family:Quicksand-Bold, Quicksand;font-variation-settings:'wght' 700;letter-spacing:0.02em;display:inline;fill:#414042"
         d="m 125.16117,-23.5113 q 3.0198,0 5.39249,1.55304 2.41584,1.5099 3.79632,4.18458 1.42362,2.67468 1.42362,6.21216 0,3.5374801 -1.42362,6.2553001 -1.38048,2.6746799 -3.75318,4.2277199 -2.32955,1.50989999 -5.26307,1.50989999 -1.7256,0 -3.2355,-0.56081999 -1.5099,-0.56081999 -2.67468,-1.42362 -1.12164,-0.8628 -1.76874,-1.7256 -0.60396,-0.9059399 -0.60396,-1.5098999 l 1.33734,-0.56082 V -2.20014 q 0,1.12164 -0.73338,1.89816 -0.73338,0.73337999 -1.85502,0.73337999 -1.12164,0 -1.85502,-0.73337999 -0.73338,-0.73338 -0.73338,-1.89816 v -27.09192 q 0,-1.12164 0.73338,-1.85502 0.73338,-0.77652 1.85502,-0.77652 1.12164,0 1.85502,0.77652 0.73338,0.73338 0.73338,1.85502 v 10.95756 l -0.73338,-0.38826 q 0,-0.56082 0.60396,-1.33734 0.60396,-0.81966 1.63932,-1.59618 1.03536,-0.81966 2.3727,-1.33734 1.38048,-0.51768 2.89038,-0.51768 z m -0.6471,4.7454 q -1.89816,0 -3.32178,0.94908 -1.42362,0.94908 -2.24328,2.5884 -0.77652,1.59618 -0.77652,3.6669 0,2.0275801 0.77652,3.7100401 0.81966,1.63932 2.24328,2.5884 1.42362,0.94908 3.32178,0.94908 1.89816,0 3.27864,-0.94908 1.42362,-0.94908 2.20013,-2.5884 0.81966,-1.68246 0.81966,-3.7100401 0,-2.07072 -0.81966,-3.6669 -0.77651,-1.63932 -2.20013,-2.5884 -1.38048,-0.94908 -3.27864,-0.94908 z"
         id="path47"
         inkscape:label="b" />
      <path
         style="font-weight:700;font-size:43.14px;font-family:Quicksand-Bold, Quicksand;font-variation-settings:'wght' 700;letter-spacing:0.02em;display:inline;fill:#414042"
         d="m 104.85089,0 c -0.80528,0 -1.45238,-0.33074 -1.9413,-0.99221999 L 92.944253,-14.10678 l 3.92574,-4.01202 10.310457,13.6322401 c 0.40264,0.54644 0.60396,1.13602 0.60396,1.7687399 0,0.80528 -0.30198,1.46676 -0.90594,1.98444001 C 106.27451,-0.24446 105.59865,0 104.85089,0 Z m 0.0795,-30.19801 c 0.69024,0 1.25106,0.2876 1.68246,0.8628 0.46016,0.54644 0.69024,1.10726 0.69024,1.68246 0,0.60396 -0.25884,1.16478 -0.77652,1.68246 l -17.637517,17.0834501 -0.2157,-6.1690201 14.143177,-14.14993 c 0.66148,-0.66148 1.3661,-0.99222 2.11386,-0.99222 z M 86.732093,0 C 85.926813,0 85.279713,-0.24446 84.790794,-0.73337999 84.301874,-1.25106 84.057414,-1.88378 84.057414,-2.63154 v -24.93492 c 0,-0.74776 0.25884,-1.3661 0.77652,-1.85502 0.517679,-0.51768 1.179159,-0.77652 1.984439,-0.77652 0.80528,0 1.438,0.25884 1.89816,0.77652 0.48892,0.48892 0.73338,1.10726 0.73338,1.85502 v 24.93492 c 0,0.74776 -0.24446,1.38048 -0.73338,1.89816001 C 88.227613,-0.24446 87.566133,0 86.732093,0 Z"
         id="path44"
         inkscape:label="K"
         sodipodi:nodetypes="sccccscsscsccccsscsscscsscs" />
      <path
         style="font-weight:700;font-size:43.14px;font-family:Quicksand-Bold, Quicksand;font-variation-settings:'wght' 700;letter-spacing:0.03em;display:inline;fill:#414042"
         d="m 69.899549,-23.5113 c 2.12824,0 3.7388,0.44578 4.83168,1.33734 1.12164,0.89156 1.88378,2.0851 2.28642,3.58062 0.4314,1.46676 0.6471,3.10608 0.6471,4.91796 v 11.04384 c 0,0.74776 -0.24446,1.38048 -0.73338,1.89816001 C 76.442449,-0.24446 75.824109,0 75.076349,0 74.328589,0 73.710249,-0.24446 73.221329,-0.73337999 72.732409,-1.25106 72.487949,-1.88378 72.487949,-2.63154 v -11.04384 c 0,-0.94908 -0.12942,-1.7975 -0.38826,-2.54526 -0.23008,-0.77652 -0.66148,-1.39486 -1.2942,-1.85502 -0.63272,-0.46016 -1.53866,-0.69024 -2.71782,-0.69024 -1.1504,0 -2.12824,0.23008 -2.93352,0.69024 -0.77652,0.46016 -1.38048,1.0785 -1.81188,1.85502 -0.40264,0.74776 -0.60396,1.59618 -0.60396,2.54526 v 11.04384 c 0,0.74776 -0.24446,1.38048 -0.73338,1.89816001 C 61.516009,-0.24446 60.897669,0 60.149909,0 59.402149,0 58.783809,-0.24446 58.294889,-0.73337999 57.805969,-1.25106 57.561509,-1.88378 57.561509,-2.63154 v -17.81682 c 0,-0.74776 0.24446,-1.3661 0.73338,-1.85502 0.48892,-0.51768 1.10726,-0.77652 1.85502,-0.77652 0.74776,0 1.3661,0.25884 1.85502,0.77652 0.48892,0.48892 0.73338,1.10726 0.73338,1.85502 v 1.85502 l -0.6471,-0.12942 c 0.25884,-0.48892 0.63272,-1.0066 1.12164,-1.55304 0.48892,-0.5752 1.06412,-1.10726 1.7256,-1.59618 0.66148,-0.48892 1.40924,-0.87718 2.24328,-1.16478 0.83404,-0.31636 1.73998,-0.47454 2.71782,-0.47454 z"
         id="path46"
         inkscape:label="n" />
      <path
         style="font-weight:700;font-size:43.14px;font-family:Quicksand-Bold, Quicksand;font-variation-settings:'wght' 700;letter-spacing:0.03em;display:inline;fill:#414042"
         d="m 48.070781,-23.5113 c 0.74776,0 1.3661,0.24446 1.85502,0.73338 0.48892,0.48892 0.73338,1.12164 0.73338,1.89816 v 18.24822 c 0,0.74776 -0.24446,1.38048 -0.73338,1.89816001 C 49.436881,-0.24446 48.818541,0 48.070781,0 47.323021,0 46.704681,-0.24446 46.215761,-0.73337999 45.726841,-1.25106 45.482381,-1.88378 45.482381,-2.63154 v -2.1138599 l 0.94908,0.38826 c 0,0.37388 -0.20132,0.83404 -0.60396,1.3804799 -0.40264,0.51768 -0.94908,1.03536 -1.639319,1.55304 -0.69024,0.51768001 -1.5099,0.96346001 -2.45898,1.33734 -0.92032,0.34511999 -1.92692,0.51767999 -3.0198,0.51767999 -1.98444,0 -3.78194,-0.5033 -5.3925,-1.50989999 -1.61056,-1.03536 -2.89038,-2.4446 -3.83946,-4.2277199 -0.92032,-1.81188 -1.38048,-3.8826 -1.38048,-6.2121601 0,-2.35832 0.46016,-4.42904 1.38048,-6.21216 0.94908,-1.81188 2.21452,-3.22112 3.79632,-4.22772 1.5818,-1.03536 3.33616,-1.55304 5.26308,-1.55304 1.23668,0 2.3727,0.18694 3.40806,0.56082 1.03536,0.37388 1.92692,0.84842 2.67468,1.42362 0.776519,0.5752 1.366099,1.16478 1.768739,1.76874 0.4314,0.5752 0.6471,1.06412 0.6471,1.46676 l -1.55304,0.56082 v -3.14922 c 0,-0.74776 0.24446,-1.3661 0.73338,-1.85502 0.48892,-0.51768 1.10726,-0.77652 1.85502,-0.77652 z m -8.714279,19.1973001 c 1.26544,0 2.3727,-0.31636 3.32178,-0.94908 0.94908,-0.63272 1.68246,-1.49552 2.20014,-2.5884 0.546439,-1.09288 0.819659,-2.3151801 0.819659,-3.6669001 0,-1.38048 -0.27322,-2.61716 -0.819659,-3.71004 -0.51768,-1.09288 -1.25106,-1.95568 -2.20014,-2.5884 -0.94908,-0.63272 -2.05634,-0.94908 -3.32178,-0.94908 -1.23668,0 -2.32956,0.31636 -3.27864,0.94908 -0.94908,0.63272 -1.69684,1.49552 -2.24328,2.5884 -0.51768,1.09288 -0.77652,2.32956 -0.77652,3.71004 0,1.35172 0.25884,2.5740201 0.77652,3.6669001 0.54644,1.09288 1.2942,1.95568 2.24328,2.5884 0.94908,0.63272 2.04196,0.94908 3.27864,0.94908 z"
         id="path43"
         inkscape:label="a" />
      <path
         style="font-weight:700;font-size:43.14px;font-family:Quicksand-Bold, Quicksand;font-variation-settings:'wght' 700;letter-spacing:0.03em;display:inline;fill:#414042"
         d="m 185.01424,56.316393 c 1.49552,0 2.89038,0.4314 4.18458,1.2942 1.32296,0.8628 2.38708,2.02758 3.19236,3.49434 0.80528,1.46676 1.20792,4.139758 1.20792,5.951638 0,1.78312 -0.40264,4.054109 -1.20792,5.520869 -0.80528,1.46676 -1.8694,2.64592 -3.19236,3.53748 -1.2942,0.8628 -2.68906,1.2942 -4.18458,1.2942 h -9.77306 l 0.4314,-0.77652 v 7.250253 c 0,0.74776 -0.23008,1.38048 -0.69024,1.89816 -0.46016,0.48892 -1.06412,0.73338 -1.81188,0.73338 -0.719,0 -1.30858,-0.24446 -1.76874,-0.73338 -0.46016,-0.51768 -0.69024,-1.1504 -0.69024,-1.89816 v -24.93492 c 0,-0.74776 0.24446,-1.3661 0.73338,-1.85502 0.51768,-0.51768 1.1504,-0.77652 1.89816,-0.77652 z m 0,16.174767 c 0.54644,0 1.0785,-0.23008 1.59618,-0.69024 0.51768,-0.46016 0.94908,-1.04974 1.2942,-1.76874 0.34512,-0.74776 0.51768,-2.170329 0.51768,-2.975609 0,-0.83404 -0.17256,-2.644238 -0.51768,-3.363238 -0.34512,-0.719 -0.77652,-1.2942 -1.2942,-1.7256 -0.51768,-0.46016 -1.04974,-0.69024 -1.59618,-0.69024 h -9.85934 l 0.51768,-0.77652 V 73.1814 l -0.47454,-0.69024 z"
         id="path38"
         sodipodi:nodetypes="scssscsccscscssssssscsscsccccs"
         transform="translate(-169.07422,-86.31645)"
         inkscape:label="P" />
    </g>
    <g
       id="g53"
       style="display:inline;stroke-width:0.999845;stroke-dasharray:none"
       transform="matrix(0.24503792,0,0,0.24503792,66.27831,39.271945)"
       inkscape:label="tagline">
      <path
         d="m 8.0349998,-8.3885398 q 0.27319,0 0.44996,0.19284 0.19284,0.17677 0.19284,0.4499599 v 7.08686991 q 0,0.27319 -0.19284,0.46602999 Q 8.3081898,0 8.0349998,0 7.7457399,0 7.5689699,-0.19284 7.3921999,-0.38567999 7.3921999,-0.65886999 V -2.18552 l 0.30533,-0.03214 q 0,0.35354 -0.24105,0.77136 -0.24105,0.41782 -0.65887,0.78743001 -0.41782,0.35354 -0.99634,0.59458999 -0.56245,0.22498 -1.22132,0.22498 -1.09276,0 -1.9605399,-0.56244999 Q 1.75163,-0.98026998 1.23739,-1.96054 0.73921999,-2.9408099 0.73921999,-4.1942699 q 0,-1.26953 0.49817001,-2.23373 0.51424,-0.98027 1.38202,-1.5266499 0.8677799,-0.56245 1.9283999,-0.56245 0.69101,0 1.2856,0.22498 0.59459,0.22498 1.02848,0.6106599 0.44996,0.38568 0.69101,0.85171 0.25712,0.46603 0.25712,0.93206 l -0.41782,-0.09642 v -1.75163 q 0,-0.2731899 0.17677,-0.4499599 0.17677,-0.19284 0.4660299,-0.19284 z M 4.7245799,-1.02848 q 0.8035,0 1.41416,-0.41782 0.62673,-0.41782 0.9642,-1.1249 0.35354,-0.7231499 0.35354,-1.6230699 0,-0.88385 -0.35354,-1.59093 -0.33747,-0.72315 -0.9642,-1.1249 -0.61066,-0.41782 -1.41416,-0.41782 -0.78743,0 -1.41416,0.40175 -0.61066,0.40175 -0.9641999,1.10883 -0.35354,0.70708 -0.35354,1.62307 0,0.89992 0.33747,1.6230699 0.3535399,0.70708 0.9641999,1.1249 0.62673,0.41782 1.43023,0.41782 z M 20.537428,-8.4367498 q 1.09276,0 1.96054,0.5463799 0.86778,0.54638 1.36595,1.51058 0.51424,0.9642 0.51424,2.21766 0,1.23739 -0.51424,2.2176599 -0.49817,0.96420002 -1.36595,1.52665001 -0.85171,0.54637999 -1.9284,0.54637999 -0.59459,0 -1.1249,-0.17677 -0.51424,-0.19284 -0.94813,-0.48209999 -0.41782,-0.30532999 -0.70708,-0.67494001 -0.28926,-0.38568 -0.41782,-0.75529 l 0.35354,-0.22498 v 4.74065 q 0,0.2731899 -0.17677,0.4660299 -0.17677,0.19284 -0.46603,0.19284 -0.27319,0 -0.46603,-0.19284 -0.17677,-0.17677 -0.17677,-0.4660299 V -7.7135999 q 0,-0.2731899 0.17677,-0.4499599 0.19284,-0.19284 0.46603,-0.19284 0.28926,0 0.46603,0.19284 0.17677,0.17677 0.17677,0.4499599 v 1.43023 l -0.24105,-0.12856 q 0.11249,-0.40175 0.38568,-0.77136 0.28926,-0.36961 0.69101,-0.6428 0.41782,-0.2892599 0.91599,-0.4499599 0.51424,-0.1607 1.06062,-0.1607 z m -0.14463,1.1891799 q -0.8035,0 -1.43023,0.40175 -0.61066,0.40175 -0.9642,1.09276 -0.33747,0.69101 -0.33747,1.59093 0,0.88385 0.33747,1.5909299 0.35354,0.70708 0.9642,1.10883 0.62673,0.40175 1.43023,0.40175 0.8035,0 1.41416,-0.40175 0.61066,-0.40175 0.9642,-1.10883 0.35354,-0.7070799 0.35354,-1.5909299 0,-0.89992 -0.35354,-1.59093 -0.35354,-0.69101 -0.9642,-1.09276 -0.61066,-0.40175 -1.41416,-0.40175 z m 13.241653,-1.1409699 q 0.27319,0 0.44996,0.19284 0.19284,0.17677 0.19284,0.4499599 v 7.08686991 q 0,0.27319 -0.19284,0.46602999 Q 33.907641,0 33.634451,0 q -0.28926,0 -0.46603,-0.19284 -0.17677,-0.19283999 -0.17677,-0.46602999 V -2.18552 l 0.30533,-0.03214 q 0,0.35354 -0.24105,0.77136 -0.24105,0.41782 -0.65887,0.78743001 -0.41782,0.35354 -0.99634,0.59458999 -0.56245,0.22498 -1.22132,0.22498 -1.09276,0 -1.96054,-0.56244999 -0.86778,-0.57851999 -1.38202,-1.55879001 -0.49817,-0.9802699 -0.49817,-2.2337299 0,-1.26953 0.49817,-2.23373 0.51424,-0.98027 1.38202,-1.5266499 0.86778,-0.56245 1.9284,-0.56245 0.69101,0 1.2856,0.22498 0.59459,0.22498 1.02848,0.6106599 0.44996,0.38568 0.69101,0.85171 0.25712,0.46603 0.25712,0.93206 l -0.41782,-0.09642 v -1.75163 q 0,-0.2731899 0.17677,-0.4499599 0.17677,-0.19284 0.46603,-0.19284 z m -3.31042,7.3600598 q 0.8035,0 1.41416,-0.41782 0.62673,-0.41782 0.9642,-1.1249 0.35354,-0.7231499 0.35354,-1.6230699 0,-0.88385 -0.35354,-1.59093 -0.33747,-0.72315 -0.9642,-1.1249 -0.61066,-0.41782 -1.41416,-0.41782 -0.78743,0 -1.41416,0.40175 -0.61066,0.40175 -0.9642,1.10883 -0.35354,0.70708 -0.35354,1.62307 0,0.89992 0.33747,1.6230699 0.35354,0.70708 0.9642,1.1249 0.62673,0.41782 1.43023,0.41782 z m 10.943644,-7.4886198 q 1.09276,0 1.71949,0.44996 0.62673,0.4499599 0.88385,1.2052499 0.27319,0.75529 0.27319,1.68735 v 4.51566991 q 0,0.27319 -0.19284,0.46602999 Q 43.774595,0 43.501405,0 q -0.27319,0 -0.46603,-0.19284 -0.17677,-0.19283999 -0.17677,-0.46602999 V -5.1423999 q 0,-0.61066 -0.19284,-1.09276 -0.17677,-0.49817 -0.61066,-0.78743 -0.41782,-0.30533 -1.15704,-0.30533 -0.67494,0 -1.23739,0.30533 -0.56245,0.28926 -0.89992,0.78743 -0.33747,0.4821 -0.33747,1.09276 v 4.48352991 q 0,0.27319 -0.19284,0.46602999 Q 38.053675,0 37.780485,0 q -0.27319,0 -0.46603,-0.19284 -0.17677,-0.19283999 -0.17677,-0.46602999 V -7.6653899 q 0,-0.2731899 0.17677,-0.4499599 0.19284,-0.19284 0.46603,-0.19284 0.28926,0 0.46603,0.19284 0.17677,0.17677 0.17677,0.4499599 v 1.14097 l -0.3214,0.35354 q 0.08035,-0.41782 0.36961,-0.83564 0.28926,-0.43389 0.72315,-0.77136 0.43389,-0.3374699 0.9642,-0.5303099 0.53031,-0.20891 1.10883,-0.20891 z m 9.433084,0 q 0.81957,0 1.47844,0.17677 0.65887,0.17677 1.04455,0.4820999 0.38568,0.30533 0.38568,0.69101 0,0.20891 -0.14463,0.40175 -0.14463,0.19284 -0.38568,0.19284 -0.22498,0 -0.36961,-0.08035 -0.12856,-0.08035 -0.25712,-0.20891 -0.11249,-0.12856 -0.3214,-0.22498 -0.19284,-0.11249 -0.56245,-0.17677 -0.36961,-0.06428 -0.73922,-0.06428 -0.88385,0 -1.55879,0.41782 -0.65887,0.41782 -1.04455,1.1249 -0.38568,0.70708 -0.38568,1.607 0,0.89992 0.36961,1.6069999 0.36961,0.70708 1.02848,1.1249 0.65887,0.41782 1.52665,0.41782 0.56245,0 0.89992,-0.09642 0.33747,-0.09642 0.56245,-0.22498 0.28926,-0.1607 0.43389,-0.3214 0.1607,-0.1607 0.41782,-0.1607 0.27319,0 0.41782,0.17677 0.1607,0.17677 0.1607,0.43389 0,0.28926002 -0.40175,0.61066001 -0.40175,0.3214 -1.09276,0.54637999 -0.67494,0.22498 -1.54272,0.22498 -1.22132,0 -2.13731,-0.56244999 -0.91599,-0.57851999 -1.43023,-1.55879001 -0.49817,-0.9963399 -0.49817,-2.2176599 0,-1.22132 0.51424,-2.20159 0.53031,-0.98027 1.46237,-1.5587899 0.93206,-0.57852 2.16945,-0.57852 z M 56.469874,0 q -0.27319,0 -0.46603,-0.19284 -0.17677,-0.19283999 -0.17677,-0.46602999 V -7.6653899 q 0,-0.2731899 0.17677,-0.4499599 0.19284,-0.19284 0.46603,-0.19284 0.28926,0 0.46603,0.19284 0.17677,0.17677 0.17677,0.4499599 v 2.12124 l -0.19284,-0.33747 q 0.09642,-0.49817 0.33747,-0.9642 0.25712,-0.4821 0.6428,-0.85171 0.38568,-0.3856799 0.88385,-0.5945899 0.49817,-0.22498 1.09276,-0.22498 0.35354,0 0.6428,0.17677 0.30533,0.1607 0.30533,0.4660299 0,0.33747 -0.17677,0.49817 -0.17677,0.1607 -0.40175,0.1607 -0.20891,0 -0.40175,-0.08035 -0.19284,-0.09642 -0.4821,-0.09642 -0.40175,0 -0.8035,0.22498 -0.38568,0.20891 -0.72315,0.61066 -0.3214,0.40175 -0.53031,0.91599 -0.19284,0.49817 -0.19284,1.07669 v 3.90500991 q 0,0.27319 -0.19284,0.46602999 Q 56.743064,0 56.469874,0 Z m 9.770527,0.1607 q -1.2856,0 -2.2498,-0.54637999 -0.9642,-0.54637999 -1.51058,-1.49451001 -0.53031,-0.9641999 -0.53031,-2.2176599 0,-1.39809 0.54638,-2.37836 0.56245,-0.99634 1.4463,-1.5105799 0.89992,-0.53031 1.89626,-0.53031 0.73922,0 1.43023,0.27319 0.69101,0.27319 1.22132,0.8034999 0.53031,0.51424 0.85171,1.25346 0.3214,0.72315 0.33747,1.62307 0,0.25712 -0.19284,0.43389 -0.19284,0.17677 -0.44996,0.17677 h -6.34765 l -0.28926,-1.10883 h 6.18695 l -0.25712,0.22498 v -0.35354 q -0.06428,-0.65887 -0.44996,-1.1249 -0.36961,-0.4821 -0.91599,-0.73922 -0.53031,-0.25712 -1.1249,-0.25712 -0.4821,0 -0.9642,0.17677 -0.46603,0.1607 -0.85171,0.54638 -0.36961,0.36961 -0.61066,0.9642 -0.22498,0.59459 -0.22498,1.43023 0,0.93206 0.36961,1.6391399 0.38568,0.70708 1.06062,1.1249 0.67494,0.40175 1.57486,0.40175 0.56245,0 0.98027,-0.14463 0.41782,-0.14463 0.72315,-0.35354 0.30533,-0.22498 0.51424,-0.44996 0.20891,-0.14463 0.40175,-0.14463 0.24105,0 0.38568,0.1607 0.1607,0.1607 0.1607,0.38568 0,0.27319 -0.25712,0.4821 -0.44996,0.49817001 -1.22132,0.88385 -0.77136,0.36961 -1.63914,0.36961 z m 12.759572,-8.5492398 q 0.27319,0 0.44996,0.19284 0.19284,0.17677 0.19284,0.4499599 v 7.08686991 q 0,0.27319 -0.19284,0.46602999 Q 79.273163,0 78.999973,0 q -0.28926,0 -0.46603,-0.19284 -0.17677,-0.19283999 -0.17677,-0.46602999 V -2.18552 l 0.30533,-0.03214 q 0,0.35354 -0.24105,0.77136 -0.24105,0.41782 -0.65887,0.78743001 -0.41782,0.35354 -0.99634,0.59458999 -0.56245,0.22498 -1.22132,0.22498 -1.09276,0 -1.96054,-0.56244999 -0.86778,-0.57851999 -1.38202,-1.55879001 -0.49817,-0.9802699 -0.49817,-2.2337299 0,-1.26953 0.49817,-2.23373 0.51424,-0.98027 1.38202,-1.5266499 0.86778,-0.56245 1.9284,-0.56245 0.69101,0 1.2856,0.22498 0.59459,0.22498 1.02848,0.6106599 0.44996,0.38568 0.69101,0.85171 0.25712,0.46603 0.25712,0.93206 l -0.41782,-0.09642 v -1.75163 q 0,-0.2731899 0.17677,-0.4499599 0.17677,-0.19284 0.46603,-0.19284 z m -3.31042,7.3600598 q 0.8035,0 1.41416,-0.41782 0.62673,-0.41782 0.9642,-1.1249 0.35354,-0.7231499 0.35354,-1.6230699 0,-0.88385 -0.35354,-1.59093 -0.33747,-0.72315 -0.9642,-1.1249 -0.61066,-0.41782 -1.41416,-0.41782 -0.78743,0 -1.41416,0.40175 -0.61066,0.40175 -0.9642,1.10883 -0.35354,0.70708 -0.35354,1.62307 0,0.89992 0.33747,1.6230699 0.35354,0.70708 0.9642,1.1249 0.62673,0.41782 1.43023,0.41782 z m 6.347623,-0.28926 q -0.14463,-0.20891 -0.12856,-0.43389 0.01607,-0.24105 0.27319,-0.41782 0.1607,-0.11249 0.36961,-0.09642 0.22498,0.01607 0.40175,0.20891 0.44996,0.53031 1.02848,0.85171 0.57852,0.30533002 1.41416,0.30533002 0.38568,-0.01607 0.77136,-0.12856002 0.38568,-0.11249 0.6428,-0.38568 0.27319,-0.28926 0.27319,-0.75529 0,-0.44996 -0.27319,-0.7070799 -0.27319,-0.27319 -0.70708,-0.43389 -0.43389,-0.17677 -0.94813,-0.30533 -0.53031,-0.14463 -1.04455,-0.3214 -0.51424,-0.19284 -0.93206,-0.46603 -0.40175,-0.28926 -0.65887,-0.70708 -0.24105,-0.43389 -0.24105,-1.04455 0,-0.72315 0.38568,-1.25346 0.40175,-0.5303099 1.06062,-0.8195699 0.67494,-0.28926 1.46237,-0.28926 0.44996,0 0.93206,0.11249 0.49817,0.09642 0.9642,0.35354 0.46603,0.2410499 0.81957,0.6749399 0.14463,0.1607 0.1607,0.40175 0.01607,0.24105 -0.20891,0.43389 -0.17677,0.12856 -0.40175,0.11249 -0.20891,-0.01607 -0.35354,-0.1607 -0.33747,-0.40175 -0.85171,-0.61066 -0.49817,-0.22498 -1.10883,-0.22498 -0.38568,0 -0.75529,0.11249 -0.36961,0.11249 -0.62673,0.38568 -0.24105,0.25712 -0.24105,0.72315 0.01607,0.43389 0.28926,0.70708 0.27319,0.27319 0.73922,0.44996 0.46603,0.1607 1.02848,0.3214 0.51424,0.12856 0.98027,0.30533 0.4821,0.1607 0.86778,0.43389 0.38568,0.27319 0.61066,0.70708 0.22498,0.41782 0.22498,1.0606199 0,0.73922 -0.41782,1.28560002 -0.41782,0.53030999 -1.10883,0.81956998 -0.67494,0.27319 -1.46237,0.27319 -0.88385,0 -1.75163,-0.33747 -0.85171,-0.33746999 -1.47844,-1.14097 z M 96.275176,0 q -0.28926,0 -0.46603,-0.19284 -0.17677,-0.19283999 -0.17677,-0.46602999 V -11.249 q 0,-0.27319 0.17677,-0.44996 0.17677,-0.19284 0.46603,-0.19284 0.27319,0 0.44996,0.19284 0.19284,0.17677 0.19284,0.44996 v 10.59013001 q 0,0.27319 -0.19284,0.46602999 Q 96.548366,0 96.275176,0 Z m 5.335244,-8.3563998 q 0.25712,0 0.43389,0.20891 0.19284,0.19284 0.19284,0.4017499 0,0.27319 -0.25712,0.4821 l -5.206684,4.54781 -0.04821,-1.49451 4.435324,-3.9532199 q 0.19284,-0.19284 0.44996,-0.19284 z m 0.17677,8.3403298 q -0.27319,0 -0.4821,-0.20891 l -3.422914,-3.6478899 0.9642,-0.88385 3.390774,3.6318199 q 0.19284,0.20891002 0.19284,0.48210001 0,0.28926 -0.22498,0.46602999 -0.22498,0.1607 -0.41782,0.1607 z m 7.11899,-8.5010298 q 1.09276,0 1.71949,0.44996 0.62673,0.4499599 0.88385,1.2052499 0.27319,0.75529 0.27319,1.68735 v 4.51566991 q 0,0.27319 -0.19284,0.46602999 Q 111.4131,0 111.13991,0 q -0.27319,0 -0.46603,-0.19284 -0.17677,-0.19283999 -0.17677,-0.46602999 V -5.1423999 q 0,-0.61066 -0.19284,-1.09276 -0.17677,-0.49817 -0.61066,-0.78743 -0.41782,-0.30533 -1.15704,-0.30533 -0.67494,0 -1.23739,0.30533 -0.56245,0.28926 -0.89992,0.78743 -0.33747,0.4821 -0.33747,1.09276 v 4.48352991 q 0,0.27319 -0.19284,0.46602999 Q 105.69218,0 105.41899,0 q -0.27319,0 -0.46603,-0.19284 -0.17677,-0.19283999 -0.17677,-0.46602999 V -7.6653899 q 0,-0.2731899 0.17677,-0.4499599 0.19284,-0.19284 0.46603,-0.19284 0.28926,0 0.46603,0.19284 0.17677,0.17677 0.17677,0.4499599 v 1.14097 l -0.3214,0.35354 q 0.0803,-0.41782 0.36961,-0.83564 0.28926,-0.43389 0.72315,-0.77136 0.43389,-0.3374699 0.9642,-0.5303099 0.53031,-0.20891 1.10883,-0.20891 z m 13.62736,4.3388999 q 0,1.25346 -0.56245,2.2337299 -0.54638,0.98027002 -1.49451,1.54272001 Q 119.54452,0.1607 118.37141,0.1607 q -1.17311,0 -2.12124,-0.56244999 -0.94813,-0.56244999 -1.51058,-1.54272001 -0.54638,-0.9802699 -0.54638,-2.2337299 0,-1.25346 0.54638,-2.23373 0.56245,-0.98027 1.51058,-1.5427199 0.94813,-0.56245 2.12124,-0.56245 1.17311,0 2.10517,0.56245 0.94813,0.5624499 1.49451,1.5427199 0.56245,0.98027 0.56245,2.23373 z m -1.2856,0 q 0,-0.93206 -0.38568,-1.63914 -0.36961,-0.70708 -1.02848,-1.10883 -0.6428,-0.40175 -1.46237,-0.40175 -0.81957,0 -1.47844,0.40175 -0.6428,0.40175 -1.02848,1.10883 -0.38568,0.70708 -0.38568,1.63914 0,0.91599 0.38568,1.6230699 0.38568,0.70708 1.02848,1.1249 0.65887,0.40175 1.47844,0.40175 0.81957,0 1.46237,-0.40175 0.65887,-0.41782 1.02848,-1.1249 0.38568,-0.7070799 0.38568,-1.6230699 z m 13.49876,-4.2746199 q 0.25712,0 0.43389,0.17677 0.19284,0.17677 0.19284,0.4660299 0,0.06428 -0.0161,0.14463 0,0.06428 -0.0321,0.12856 l -2.47478,7.11900991 Q 132.77009,-0.20891 132.57725,-0.09642 132.40048,0.01607 132.19157,0 q -0.36961,-0.01607 -0.56245,-0.41781999 l -2.02482,-5.07811991 0.3214,0.04821 -1.83198,5.02990991 Q 127.91695,-0.01607 127.53127,0 q -0.20891,0.01607 -0.40175,-0.09642 -0.19284,-0.11249 -0.25712,-0.32139999 l -2.52299,-7.11900991 q -0.0482,-0.14463 -0.0482,-0.27319 0,-0.2571199 0.17677,-0.4499599 0.17677,-0.19284 0.4821,-0.19284 0.19284,0 0.35354,0.09642 0.1607,0.09642 0.22498,0.30533 l 2.16945,6.3315798 -0.33747,-0.01607 1.88019,-4.8209999 q 0.1607,-0.40175 0.59459,-0.40175 0.22498,0 0.35354,0.11249 0.14463,0.09642 0.20891,0.28926 l 1.96054,4.8209999 -0.40175,0.03214 2.16945,-6.3476498 q 0.14463,-0.40175 0.61066,-0.40175 z m 4.25856,7.79394981 q 0,0.27319 -0.19284,0.46602999 Q 138.61958,0 138.34639,0 q -0.27319,0 -0.44996,-0.19284 -0.17677,-0.19283999 -0.17677,-0.46602999 V -11.249 q 0,-0.27319 0.17677,-0.44996 0.19284,-0.19284 0.46603,-0.19284 0.28926,0 0.46603,0.19284 0.17677,0.17677 0.17677,0.44996 z M 145.65821,0.1607 q -1.2856,0 -2.2498,-0.54637999 -0.9642,-0.54637999 -1.51058,-1.49451001 -0.53031,-0.9641999 -0.53031,-2.2176599 0,-1.39809 0.54638,-2.37836 0.56245,-0.99634 1.4463,-1.5105799 0.89992,-0.53031 1.89626,-0.53031 0.73922,0 1.43023,0.27319 0.69101,0.27319 1.22132,0.8034999 0.53031,0.51424 0.85171,1.25346 0.3214,0.72315 0.33747,1.62307 0,0.25712 -0.19284,0.43389 -0.19284,0.17677 -0.44996,0.17677 h -6.34765 l -0.28926,-1.10883 h 6.18695 l -0.25712,0.22498 v -0.35354 q -0.0643,-0.65887 -0.44996,-1.1249 -0.36961,-0.4821 -0.91599,-0.73922 -0.53031,-0.25712 -1.1249,-0.25712 -0.4821,0 -0.9642,0.17677 -0.46603,0.1607 -0.85171,0.54638 -0.36961,0.36961 -0.61066,0.9642 -0.22498,0.59459 -0.22498,1.43023 0,0.93206 0.36961,1.6391399 0.38568,0.70708 1.06062,1.1249 0.67494,0.40175 1.57486,0.40175 0.56245,0 0.98027,-0.14463 0.41782,-0.14463 0.72315,-0.35354 0.30533,-0.22498 0.51424,-0.44996 0.20891,-0.14463 0.40175,-0.14463 0.24105,0 0.38568,0.1607 0.1607,0.1607 0.1607,0.38568 0,0.27319 -0.25712,0.4821 -0.44996,0.49817001 -1.22132,0.88385 -0.77136,0.36961 -1.63914,0.36961 z m 12.69529,-12.0525 q 0.27319,0 0.44996,0.19284 0.19284,0.17677 0.19284,0.44996 v 10.59013001 q 0,0.27319 -0.19284,0.46602999 Q 158.62669,0 158.3535,0 158.06424,0 157.88747,-0.19284 157.7107,-0.38567999 157.7107,-0.65886999 V -2.18552 l 0.30533,-0.11249 q 0,0.38568 -0.24105,0.81957 -0.24105,0.41782 -0.65887,0.78743001 -0.41782,0.36961 -0.99634,0.61065999 -0.56245,0.24105 -1.22132,0.24105 -1.07669,0 -1.96054,-0.56244999 -0.86778,-0.56244999 -1.38202,-1.54272001 -0.49817,-0.9802699 -0.49817,-2.2337299 0,-1.26953 0.49817,-2.2498 0.51424,-0.98027 1.38202,-1.5266499 0.86778,-0.56245 1.9284,-0.56245 0.67494,0 1.26953,0.22498 0.59459,0.22498 1.02848,0.6106599 0.44996,0.38568 0.70708,0.85171 0.25712,0.46603 0.25712,0.93206 l -0.41782,-0.09642 V -11.249 q 0,-0.27319 0.17677,-0.44996 0.17677,-0.19284 0.46603,-0.19284 z m -3.31042,10.86332 q 0.8035,0 1.41416,-0.40175 0.62673,-0.41782 0.9642,-1.1249 0.35354,-0.7231499 0.35354,-1.6230699 0,-0.91599 -0.35354,-1.62307 -0.33747,-0.70708 -0.9642,-1.10883 -0.61066,-0.41782 -1.41416,-0.41782 -0.78743,0 -1.41416,0.41782 -0.61066,0.40175 -0.9642,1.10883 -0.35354,0.70708 -0.35354,1.62307 0,0.88385 0.35354,1.6069999 0.35354,0.70708 0.9642,1.1249 0.62673,0.41782 1.41416,0.41782 z m 10.30085,-7.4886198 q 0.69101,0 1.2856,0.24105 0.59459,0.22498 1.02848,0.5945899 0.44996,0.36961 0.69101,0.77136 0.25712,0.40175 0.25712,0.75529 l -0.30533,-0.19284 v -1.39809 q 0,-0.2731899 0.17677,-0.4499599 0.17677,-0.19284 0.46603,-0.19284 0.27319,0 0.44996,0.19284 0.19284,0.17677 0.19284,0.4499599 v 7.03865991 q 0,1.31773998 -0.56245,2.18551999 -0.54638,0.86778 -1.47844,1.3016699 -0.93206,0.43389 -2.0891,0.43389 -0.4821,0 -1.06062,-0.12856 -0.57852,-0.12856 -1.02848,-0.3214 Q 162.91736,2.58727 162.7888,2.39443 q -0.24105,-0.1607 -0.30533,-0.36961 -0.0482,-0.19284 0.0803,-0.36961 0.14463,-0.22498 0.36961,-0.22498 0.24105,0 0.59459,0.14463 0.14463,0.04821 0.44996,0.1607 0.3214,0.11249 0.70708,0.19284 0.40175,0.09642 0.78743,0.09642 1.36595,0 2.0891,-0.72315 0.73922,-0.70708001 0.73922,-1.88018999 V -2.07303 l 0.17677,0.08035 q -0.0964,0.44996 -0.40175,0.83564 -0.28926,0.38568001 -0.72315,0.69101001 Q 166.93486,-0.17677 166.42062,0 q -0.51424,0.1607 -1.04455,0.1607 -1.1249,0 -2.02482,-0.56244999 -0.89992,-0.56244999 -1.43023,-1.54272001 -0.51424,-0.9802699 -0.51424,-2.2337299 0,-1.26953 0.51424,-2.2498 0.53031,-0.98027 1.41416,-1.5266499 0.89992,-0.56245 2.00875,-0.56245 z m 0.1607,1.1891799 q -0.81957,0 -1.47844,0.41782 -0.6428,0.40175 -1.01241,1.10883 -0.35354,0.70708 -0.35354,1.62307 0,0.88385 0.35354,1.6069999 0.36961,0.70708 1.01241,1.1249 0.65887,0.41782 1.47844,0.41782 0.83564,0 1.47844,-0.40175 0.6428,-0.41782 1.01241,-1.1249 0.36961,-0.7070799 0.36961,-1.6230699 0,-0.93206 -0.36961,-1.63914 -0.36961,-0.70708 -1.01241,-1.10883 -0.6428,-0.40175 -1.47844,-0.40175 z M 175.96617,0.1607 q -1.2856,0 -2.2498,-0.54637999 -0.9642,-0.54637999 -1.51058,-1.49451001 -0.53031,-0.9641999 -0.53031,-2.2176599 0,-1.39809 0.54638,-2.37836 0.56245,-0.99634 1.4463,-1.5105799 0.89992,-0.53031 1.89626,-0.53031 0.73922,0 1.43023,0.27319 0.69101,0.27319 1.22132,0.8034999 0.53031,0.51424 0.85171,1.25346 0.3214,0.72315 0.33747,1.62307 0,0.25712 -0.19284,0.43389 -0.19284,0.17677 -0.44996,0.17677 h -6.34765 l -0.28926,-1.10883 h 6.18695 l -0.25712,0.22498 v -0.35354 q -0.0643,-0.65887 -0.44996,-1.1249 -0.36961,-0.4821 -0.91599,-0.73922 -0.53031,-0.25712 -1.1249,-0.25712 -0.4821,0 -0.9642,0.17677 -0.46603,0.1607 -0.85171,0.54638 -0.36961,0.36961 -0.61066,0.9642 -0.22498,0.59459 -0.22498,1.43023 0,0.93206 0.36961,1.6391399 0.38568,0.70708 1.06062,1.1249 0.67494,0.40175 1.57486,0.40175 0.56245,0 0.98027,-0.14463 0.41782,-0.14463 0.72315,-0.35354 0.30533,-0.22498 0.51424,-0.44996 0.20891,-0.14463 0.40175,-0.14463 0.24105,0 0.38568,0.1607 0.1607,0.1607 0.1607,0.38568 0,0.27319 -0.25712,0.4821 -0.44996,0.49817001 -1.22132,0.88385 -0.77136,0.36961 -1.63914,0.36961 z m 14.84868,-8.6777998 q 1.09276,0 1.96054,0.56245 0.86778,0.5463799 1.36595,1.5105799 0.51424,0.9642 0.51424,2.23373 0,1.26953 -0.51424,2.2497999 -0.49817,0.98027002 -1.36595,1.55879001 Q 191.92368,0.1607 190.84699,0.1607 q -0.59459,0 -1.1249,-0.17677 -0.51424,-0.19284 -0.94813,-0.49816999 -0.41782,-0.32139999 -0.70708,-0.69101001 -0.28926,-0.38568 -0.41782,-0.75529 l 0.35354,-0.22498 v 1.60700001 q 0,0.27319 -0.17677,0.46602999 -0.17677,0.19284 -0.46603,0.19284 -0.27319,0 -0.46603,-0.17677 Q 186.717,-0.28925999 186.717,-0.57851999 V -11.23293 q 0,-0.27319 0.17677,-0.46603 0.19284,-0.19284 0.46603,-0.19284 0.28926,0 0.46603,0.19284 0.17677,0.19284 0.17677,0.46603 v 4.9495601 l -0.24105,-0.12856 q 0.11249,-0.40175 0.38568,-0.77136 0.28926,-0.38568 0.69101,-0.67494 0.41782,-0.3053299 0.91599,-0.4820999 0.51424,-0.17677 1.06062,-0.17677 z m -0.14463,1.1891799 q -0.8035,0 -1.43023,0.40175 -0.61066,0.40175 -0.9642,1.10883 -0.33747,0.70708 -0.33747,1.607 0,0.89992 0.33747,1.6230699 0.35354,0.72315 0.9642,1.14097 0.62673,0.41782 1.43023,0.41782 0.8035,0 1.41416,-0.41782 0.61066,-0.41782 0.9642,-1.14097 0.35354,-0.7231499 0.35354,-1.6230699 0,-0.89992 -0.35354,-1.607 -0.35354,-0.70708 -0.9642,-1.10883 -0.61066,-0.40175 -1.41416,-0.40175 z m 13.24166,-1.0606199 q 0.27319,0 0.44996,0.19284 0.19284,0.17677 0.19284,0.4499599 v 7.08686991 q 0,0.27319 -0.19284,0.46602999 Q 204.18507,0 203.91188,0 q -0.28926,0 -0.46603,-0.19284 -0.17677,-0.19283999 -0.17677,-0.46602999 V -2.18552 l 0.30533,-0.03214 q 0,0.35354 -0.24105,0.77136 -0.24105,0.41782 -0.65887,0.78743001 -0.41782,0.35354 -0.99634,0.59458999 -0.56245,0.22498 -1.22132,0.22498 -1.09276,0 -1.96054,-0.56244999 -0.86778,-0.57851999 -1.38202,-1.55879001 -0.49817,-0.9802699 -0.49817,-2.2337299 0,-1.26953 0.49817,-2.23373 0.51424,-0.98027 1.38202,-1.5266499 0.86778,-0.56245 1.9284,-0.56245 0.69101,0 1.2856,0.22498 0.59459,0.22498 1.02848,0.6106599 0.44996,0.38568 0.69101,0.85171 0.25712,0.46603 0.25712,0.93206 l -0.41782,-0.09642 v -1.75163 q 0,-0.2731899 0.17677,-0.4499599 0.17677,-0.19284 0.46603,-0.19284 z m -3.31042,7.3600598 q 0.8035,0 1.41416,-0.41782 0.62673,-0.41782 0.9642,-1.1249 0.35354,-0.7231499 0.35354,-1.6230699 0,-0.88385 -0.35354,-1.59093 -0.33747,-0.72315 -0.9642,-1.1249 -0.61066,-0.41782 -1.41416,-0.41782 -0.78743,0 -1.41416,0.40175 -0.61066,0.40175 -0.9642,1.10883 -0.35354,0.70708 -0.35354,1.62307 0,0.89992 0.33747,1.6230699 0.35354,0.70708 0.9642,1.1249 0.62673,0.41782 1.43023,0.41782 z m 6.34763,-0.28926 q -0.14463,-0.20891 -0.12856,-0.43389 0.0161,-0.24105 0.27319,-0.41782 0.1607,-0.11249 0.36961,-0.09642 0.22498,0.01607 0.40175,0.20891 0.44996,0.53031 1.02848,0.85171 0.57852,0.30533002 1.41416,0.30533002 0.38568,-0.01607 0.77136,-0.12856002 0.38568,-0.11249 0.6428,-0.38568 0.27319,-0.28926 0.27319,-0.75529 0,-0.44996 -0.27319,-0.7070799 -0.27319,-0.27319 -0.70708,-0.43389 -0.43389,-0.17677 -0.94813,-0.30533 -0.53031,-0.14463 -1.04455,-0.3214 -0.51424,-0.19284 -0.93206,-0.46603 -0.40175,-0.28926 -0.65887,-0.70708 -0.24105,-0.43389 -0.24105,-1.04455 0,-0.72315 0.38568,-1.25346 0.40175,-0.5303099 1.06062,-0.8195699 0.67494,-0.28926 1.46237,-0.28926 0.44996,0 0.93206,0.11249 0.49817,0.09642 0.9642,0.35354 0.46603,0.2410499 0.81957,0.6749399 0.14463,0.1607 0.1607,0.40175 0.0161,0.24105 -0.20891,0.43389 -0.17677,0.12856 -0.40175,0.11249 -0.20891,-0.01607 -0.35354,-0.1607 -0.33747,-0.40175 -0.85171,-0.61066 -0.49817,-0.22498 -1.10883,-0.22498 -0.38568,0 -0.75529,0.11249 -0.36961,0.11249 -0.62673,0.38568 -0.24105,0.25712 -0.24105,0.72315 0.0161,0.43389 0.28926,0.70708 0.27319,0.27319 0.73922,0.44996 0.46603,0.1607 1.02848,0.3214 0.51424,0.12856 0.98027,0.30533 0.4821,0.1607 0.86778,0.43389 0.38568,0.27319 0.61066,0.70708 0.22498,0.41782 0.22498,1.0606199 0,0.73922 -0.41782,1.28560002 -0.41782,0.53030999 -1.10883,0.81956998 -0.67494,0.27319 -1.46237,0.27319 -0.88385,0 -1.75163,-0.33747 -0.85171,-0.33746999 -1.47844,-1.14097 z m 12.40602,1.47844 q -1.2856,0 -2.2498,-0.54637999 -0.9642,-0.54637999 -1.51058,-1.49451001 -0.53031,-0.9641999 -0.53031,-2.2176599 0,-1.39809 0.54638,-2.37836 0.56245,-0.99634 1.4463,-1.5105799 0.89992,-0.53031 1.89626,-0.53031 0.73922,0 1.43023,0.27319 0.69101,0.27319 1.22132,0.8034999 0.53031,0.51424 0.85171,1.25346 0.3214,0.72315 0.33747,1.62307 0,0.25712 -0.19284,0.43389 -0.19284,0.17677 -0.44996,0.17677 h -6.34765 l -0.28926,-1.10883 h 6.18695 l -0.25712,0.22498 v -0.35354 q -0.0643,-0.65887 -0.44996,-1.1249 -0.36961,-0.4821 -0.91599,-0.73922 -0.53031,-0.25712 -1.1249,-0.25712 -0.4821,0 -0.9642,0.17677 -0.46603,0.1607 -0.85171,0.54638 -0.36961,0.36961 -0.61066,0.9642 -0.22498,0.59459 -0.22498,1.43023 0,0.93206 0.36961,1.6391399 0.38568,0.70708 1.06062,1.1249 0.67494,0.40175 1.57486,0.40175 0.56245,0 0.98027,-0.14463 0.41782,-0.14463 0.72315,-0.35354 0.30533,-0.22498 0.51424,-0.44996 0.20891,-0.14463 0.40175,-0.14463 0.24105,0 0.38568,0.1607 0.1607,0.1607 0.1607,0.38568 0,0.27319 -0.25712,0.4821 -0.44996,0.49817001 -1.22132,0.88385 -0.77136,0.36961 -1.63914,0.36961 z"
         id="text52"
         class="cls-16"
         style="font-weight:500;font-size:16.07px;font-family:Quicksand-Medium, Quicksand;font-variation-settings:'wght' 500;letter-spacing:0.03em;fill:#414042;stroke:#414042;stroke-width:0.418702;stroke-dasharray:none;stroke-opacity:1"
         transform="matrix(0.95,0,0,1,88.8,59.89)"
         aria-label="a pancreas knowledge base" />
    </g>
  </g>
</svg>
